<?xml version="1.0" standalone="no"?>
<!DOCTYPE svg PUBLIC "-//W3C//DTD SVG 20010904//EN"
 "http://www.w3.org/TR/2001/REC-SVG-20010904/DTD/svg10.dtd">
<svg version="1.0" xmlns="http://www.w3.org/2000/svg"
 width="900.000000pt" height="900.000000pt" viewBox="0 0 900.000000 900.000000"
 preserveAspectRatio="xMidYMid meet">
<metadata>
Created by potrace 1.14, written by Peter Selinger 2001-2017
</metadata>
<g transform="translate(0.000000,900.000000) scale(0.100000,-0.100000)"
fill="#000000" stroke="none">
<path d="M4525 8558 c-119 -17 -208 -40 -324 -87 -132 -53 -238 -120 -315
-197 -55 -56 -142 -193 -158 -250 -13 -50 8 -128 46 -165 32 -31 59 -40 34
-11 -8 9 -25 41 -37 71 -34 80 -20 125 80 266 50 70 115 135 134 135 4 0 20 9
36 21 49 34 159 89 239 118 269 98 625 103 788 9 47 -27 54 -28 50 -12 -4 27
-117 81 -206 99 -77 16 -260 18 -367 3z"/>
<path d="M4653 8484 c-156 -20 -270 -52 -388 -110 -123 -61 -254 -158 -314
-234 -47 -60 -97 -160 -107 -212 -9 -52 10 -49 28 3 12 40 16 42 88 66 50 16
92 23 125 21 39 -3 46 -5 30 -12 -80 -37 -268 -187 -252 -202 3 -4 28 11 54
33 120 100 301 192 411 209 61 9 254 9 412 0 157 -10 154 8 -6 31 -165 24
-458 -1 -544 -47 -16 -9 -25 -8 -37 1 -21 18 -139 14 -191 -6 -24 -10 -45 -16
-47 -13 -8 8 66 109 118 162 84 85 213 166 349 220 74 29 112 38 263 62 95 16
127 26 108 36 -4 2 -49 -1 -100 -8z"/>
<path d="M4932 8019 c2 -6 40 -22 83 -34 142 -42 370 -133 435 -176 26 -16 67
-41 203 -121 73 -43 158 -94 191 -115 32 -21 74 -47 93 -59 18 -11 48 -34 66
-51 18 -16 55 -46 82 -68 28 -21 117 -106 198 -188 82 -82 151 -146 154 -143
14 14 -78 124 -204 246 -131 127 -229 203 -348 269 -33 18 -69 41 -80 51 -11
9 -42 29 -70 45 -27 15 -68 37 -90 50 -22 12 -76 41 -120 64 -44 24 -89 51
-100 60 -58 52 -190 109 -349 151 -126 33 -150 36 -144 19z"/>
<path d="M3584 7875 c-34 -15 -60 -42 -50 -52 3 -4 26 3 50 15 24 12 54 22 67
22 34 0 69 11 69 21 0 14 -101 9 -136 -6z"/>
<path d="M3845 7871 c-3 -5 -1 -12 4 -15 5 -3 11 1 15 9 6 16 -9 21 -19 6z"/>
<path d="M3244 7826 c-66 -16 -155 -52 -224 -91 -90 -51 -258 -158 -288 -183
-110 -94 -218 -223 -400 -480 -56 -78 -58 -82 -39 -82 11 1 217 258 226 284 7
17 99 125 144 169 79 76 198 154 392 256 112 60 224 97 305 100 57 2 77 11 66
30 -9 14 -117 13 -182 -3z"/>
<path d="M4157 7493 c12 -2 27 -11 33 -19 7 -8 19 -14 27 -14 7 0 36 -21 64
-47 27 -25 51 -44 54 -41 7 6 -94 92 -132 111 -18 10 -40 16 -50 16 -13 -1
-12 -3 4 -6z"/>
<path d="M3496 7464 c-9 -8 -16 -13 -16 -9 0 4 -7 -1 -16 -10 -21 -21 -9 -33
13 -13 10 8 26 18 36 21 18 7 24 27 8 27 -5 0 -17 -7 -25 -16z"/>
<path d="M3399 7394 c-32 -34 -11 -47 24 -14 22 21 25 28 14 33 -8 3 -25 -5
-38 -19z"/>
<path d="M3330 7299 c-18 -29 -33 -58 -33 -65 0 -8 -4 -14 -9 -14 -5 0 -7 -4
-4 -9 4 -5 3 -11 -2 -13 -13 -5 -55 -69 -49 -74 3 -3 -2 -14 -11 -25 -19 -22
-67 -140 -76 -189 l-7 -35 14 30 c26 54 45 100 49 115 2 8 5 17 8 20 3 3 14
25 25 50 10 25 24 52 30 60 27 35 64 108 58 114 -3 3 -1 6 5 6 10 0 52 60 52
74 0 19 -20 0 -50 -45z"/>
<path d="M4367 7325 c10 -13 22 -25 27 -25 5 0 -1 11 -14 25 -30 32 -36 32
-13 0z"/>
<path d="M4430 7254 c0 -5 7 -18 15 -28 12 -16 15 -17 15 -4 0 8 -7 21 -15 28
-8 7 -15 9 -15 4z"/>
<path d="M3785 7240 c3 -5 8 -10 11 -10 2 0 4 5 4 10 0 6 -5 10 -11 10 -5 0
-7 -4 -4 -10z"/>
<path d="M6450 7037 c0 -7 7 -22 16 -32 8 -11 34 -50 57 -87 23 -38 79 -128
125 -200 113 -179 236 -387 285 -478 96 -181 285 -356 455 -421 65 -25 205
-38 216 -20 5 7 -2 11 -18 11 -47 0 -154 30 -217 61 -80 39 -227 150 -295 221
-48 50 -96 126 -229 368 -78 142 -118 207 -200 329 -38 57 -79 118 -90 137
-12 18 -28 41 -38 52 -9 10 -17 23 -17 29 0 11 -32 43 -43 43 -4 0 -7 -6 -7
-13z"/>
<path d="M2248 6943 c-19 -21 -24 -43 -9 -43 15 0 33 28 29 46 -3 14 -5 14
-20 -3z"/>
<path d="M4680 6843 c0 -13 39 -83 46 -83 2 0 -3 17 -11 38 -17 40 -35 63 -35
45z"/>
<path d="M2124 6753 c-64 -116 -107 -238 -179 -508 -14 -49 -27 -100 -31 -112
-4 -14 -2 -23 5 -23 6 0 11 2 11 4 0 14 111 358 128 396 32 74 80 177 117 252
19 38 35 72 35 74 0 2 -9 4 -19 4 -15 0 -33 -24 -67 -87z"/>
<path d="M3086 6705 c-9 -26 -7 -32 5 -12 6 10 9 21 6 23 -2 3 -7 -2 -11 -11z"/>
<path d="M3025 6409 c-4 -38 -4 -73 -1 -76 3 -4 6 5 7 18 0 26 5 59 13 102 2
15 1 27 -4 27 -4 0 -11 -32 -15 -71z"/>
<path d="M3017 6313 c-10 -9 -9 -23 1 -23 5 0 9 7 9 15 0 17 -1 18 -10 8z"/>
<path d="M3010 6229 c0 -29 2 -50 4 -48 9 9 13 90 5 95 -5 3 -9 -18 -9 -47z"/>
<path d="M6000 6240 c0 -5 5 -10 11 -10 5 0 7 5 4 10 -3 6 -8 10 -11 10 -2 0
-4 -4 -4 -10z"/>
<path d="M5437 6073 c-3 -10 -8 -34 -11 -54 -7 -41 -45 -97 -78 -113 -40 -20
-27 -38 42 -57 64 -17 84 -32 131 -100 22 -32 49 -19 49 23 0 58 19 105 56
138 37 32 40 60 6 60 -23 0 -80 24 -102 42 -9 7 -26 28 -39 46 -25 35 -47 41
-54 15z m53 -82 c0 -5 20 -19 45 -31 45 -22 54 -33 35 -45 -5 -3 -17 -21 -26
-40 -16 -35 -37 -45 -49 -25 -4 6 -24 18 -46 27 -21 8 -39 17 -39 20 0 2 11
15 25 29 14 14 28 36 31 49 6 24 24 35 24 16z"/>
<path d="M6080 6075 c1 -6 7 -21 16 -35 l15 -25 -7 25 c-7 26 -24 52 -24 35z"/>
<path d="M1861 6036 c-20 -73 -125 -184 -210 -223 -135 -62 -221 -77 -328 -57
-46 9 -42 -13 5 -25 141 -40 350 21 469 137 54 52 103 137 103 180 0 35 -28
26 -39 -12z"/>
<path d="M6140 5951 c0 -5 5 -13 10 -16 6 -3 10 -2 10 4 0 5 -4 13 -10 16 -5
3 -10 2 -10 -4z"/>
<path d="M6843 5893 c-6 -15 10 -72 54 -190 19 -52 45 -60 33 -10 -4 17 -13
45 -19 60 -20 50 -15 61 17 39 71 -50 203 -99 306 -112 212 -28 421 7 442 73
9 28 -4 33 -29 10 -42 -38 -69 -45 -197 -51 -141 -5 -253 11 -368 54 -72 28
-176 95 -192 124 -13 24 -38 26 -47 3z"/>
<path d="M6207 5813 c24 -49 48 -90 54 -92 7 -2 10 1 8 6 -10 26 -95 172 -100
173 -4 0 13 -39 38 -87z"/>
<path d="M4176 5803 c-21 -21 12 -402 60 -683 2 -14 11 -68 20 -120 41 -245
114 -490 145 -490 7 0 8 7 4 18 -16 38 -45 135 -42 139 3 2 17 -1 32 -7 16 -6
38 -10 49 -9 43 3 46 0 46 -50 0 -28 11 -81 26 -122 25 -70 87 -169 105 -169
14 0 10 28 -5 37 -14 8 -61 132 -53 140 11 10 235 2 349 -12 52 -7 57 -9 53
-29 -3 -11 -7 -32 -9 -46 -6 -39 -34 -100 -45 -100 -6 0 -11 -4 -11 -10 0 -23
32 -7 54 28 44 66 58 159 40 261 l-5 34 98 -6 c111 -7 129 -1 119 37 -3 14 -2
26 3 26 17 0 24 -109 25 -390 1 -279 -16 -521 -38 -549 -16 -21 -139 -76 -247
-111 -134 -43 -128 -39 -97 -56 15 -8 29 -23 33 -33 10 -32 118 -90 168 -91 9
0 17 -5 17 -11 0 -23 -76 -111 -120 -139 -74 -47 -92 -47 -183 -2 -5 2 -7 -6
-5 -18 5 -35 89 -65 145 -51 23 6 70 11 105 11 60 1 135 21 231 64 36 16 37
16 37 -4 0 -52 -67 -141 -164 -216 -71 -55 -232 -142 -343 -185 -35 -13 -63
-28 -63 -33 0 -11 91 -1 117 12 10 6 54 27 98 48 236 113 384 257 402 394 9
68 32 70 111 11 42 -31 71 -46 77 -40 15 15 25 11 25 -10 0 -12 16 -29 43 -44
120 -71 277 -224 402 -392 16 -22 33 -41 37 -43 4 -2 8 -10 8 -17 0 -8 17 -42
38 -76 94 -155 111 -187 172 -324 10 -22 39 -87 65 -145 53 -120 110 -264 120
-303 8 -30 35 -37 35 -9 0 19 -41 144 -65 197 -8 17 -28 65 -45 107 -18 43
-56 123 -86 179 -30 55 -54 103 -54 107 0 3 -43 79 -96 169 -53 90 -95 166
-92 168 2 2 33 -1 70 -7 108 -19 257 19 292 74 17 27 0 32 -32 9 -76 -54 -222
-71 -319 -36 -39 14 -57 28 -81 64 -43 63 -164 186 -237 242 -72 55 -141 99
-155 99 -6 0 -16 5 -23 10 -7 6 -38 30 -70 55 l-58 44 21 18 c81 67 221 232
289 340 89 143 202 540 225 798 4 39 9 87 13 107 l5 37 45 -32 c82 -58 135
-157 159 -296 18 -101 7 -198 -31 -277 -46 -94 -166 -200 -288 -254 -26 -11
-47 -25 -47 -30 0 -44 215 71 294 157 127 138 146 392 45 594 -26 51 -103 134
-144 153 l-36 17 1 217 c0 119 0 261 0 315 1 56 -3 97 -9 97 -6 0 -10 -40 -10
-92 0 -352 -12 -654 -31 -765 -68 -400 -181 -690 -352 -908 -72 -92 -239 -225
-353 -282 -77 -39 -215 -73 -215 -53 0 3 14 19 31 36 41 38 110 136 142 199
70 142 92 333 92 805 0 273 -3 371 -13 387 -7 12 -45 43 -85 69 -39 25 -103
71 -142 102 -143 113 -418 399 -565 585 -46 59 -60 68 -60 41 0 -19 121 -170
220 -275 159 -169 335 -338 440 -422 l35 -27 -63 5 c-218 20 -576 37 -643 31
-32 -4 -59 -5 -59 -3 0 2 -13 71 -29 153 -17 82 -32 169 -35 194 -11 83 -24
264 -26 337 0 39 -3 84 -6 99 -3 15 -2 40 2 56 6 29 6 29 61 -46 35 -50 61
-76 74 -76 27 0 24 10 -14 61 -19 24 -60 85 -91 136 -58 95 -69 107 -80 96z
m983 -2220 c-35 -86 -48 -103 -78 -102 -30 0 -133 49 -138 64 -3 10 227 107
236 99 2 -2 -7 -29 -20 -61z"/>
<path d="M3020 5774 c-6 -16 -18 -57 -26 -90 -35 -154 -115 -368 -203 -545
l-91 -184 4 115 c2 63 7 129 9 145 6 31 15 111 22 180 6 56 -32 -96 -40 -160
-3 -27 -10 -118 -15 -201 -7 -104 -17 -170 -30 -210 -11 -32 -23 -87 -26 -123
-3 -36 -9 -77 -14 -91 -4 -14 -13 -61 -20 -105 -6 -44 -15 -107 -20 -140 -24
-167 -33 -342 -22 -450 20 -199 57 -327 129 -442 18 -29 28 -53 22 -53 -27 0
-100 48 -147 99 -62 64 -156 201 -197 285 -35 72 -54 61 -25 -15 12 -30 27
-63 35 -74 9 -15 10 -35 4 -73 -24 -153 -127 -251 -249 -240 -53 5 -64 -4 -28
-23 28 -15 112 -5 165 21 54 26 114 95 137 159 10 28 22 51 26 51 5 0 22 -17
37 -37 60 -80 167 -162 228 -177 17 -4 67 -25 111 -47 83 -40 131 -48 152 -27
19 19 14 31 -12 24 -31 -8 -78 13 -138 58 -41 31 -50 46 -68 104 -13 39 -24
109 -27 167 l-6 100 39 -35 c21 -20 55 -45 75 -58 42 -26 122 -119 151 -176
44 -87 52 -213 15 -269 -34 -52 -135 -71 -168 -31 -15 18 -29 18 -29 -1 0 -51
162 -68 250 -27 54 25 66 35 105 87 32 43 55 103 55 148 0 15 5 27 11 27 22 0
127 -119 154 -173 22 -47 26 -68 26 -137 -1 -145 -46 -200 -168 -203 -88 -2
-54 -37 36 -37 57 0 62 -8 32 -56 -10 -17 -22 -41 -26 -55 -8 -26 -28 -72 -80
-184 -52 -113 -81 -192 -120 -325 -34 -116 -65 -207 -86 -255 -4 -11 -31 -81
-58 -155 -28 -74 -68 -180 -91 -234 -22 -55 -56 -159 -76 -230 -19 -72 -56
-203 -81 -291 -91 -321 -136 -511 -145 -609 -8 -97 -8 -99 17 -132 14 -19 64
-57 110 -85 79 -48 90 -59 86 -83 -1 -5 -5 -51 -8 -102 l-6 -94 25 0 c23 0 26
5 32 53 3 28 6 69 6 90 0 35 12 48 24 28 5 -8 -5 -81 -19 -149 -4 -16 -1 -22
13 -22 15 0 21 16 35 93 10 50 20 110 22 131 3 22 7 51 10 65 2 14 11 76 20
136 9 61 23 142 31 180 16 82 18 103 5 90 -9 -11 -45 -153 -56 -220 -10 -68
-26 -158 -37 -207 l-10 -47 -56 38 c-32 21 -69 45 -83 52 -101 53 -146 102
-135 145 4 14 9 44 12 67 8 71 11 88 47 227 48 182 118 429 167 585 10 33 28
94 40 135 12 41 30 98 40 125 70 188 150 413 195 545 58 171 89 250 153 390
16 36 51 119 77 185 56 143 83 183 172 262 203 179 392 303 492 321 20 4 83
33 141 64 91 49 117 58 193 69 48 7 90 9 93 6 12 -12 -7 -25 -68 -47 -35 -13
-82 -31 -105 -41 -26 -12 -53 -17 -71 -13 -45 9 -62 -23 -62 -113 0 -96 44
-207 107 -269 51 -51 79 -68 88 -54 8 12 -2 30 -17 30 -16 0 -55 48 -94 117
-38 67 -58 160 -46 208 7 26 16 31 88 51 75 21 161 54 213 83 20 11 22 18 18
48 -10 62 -18 65 -136 58 -353 -23 -664 11 -928 99 -246 83 -278 98 -403 182
-79 53 -117 88 -152 139 -52 76 -61 110 -57 225 3 87 2 105 -11 105 -38 0 -39
-228 0 -308 28 -58 98 -138 148 -168 20 -13 39 -26 42 -29 15 -18 103 -69 155
-90 33 -13 65 -26 70 -30 15 -10 141 -56 205 -74 180 -50 437 -91 645 -102 72
-3 131 -7 132 -8 5 -4 -142 -65 -269 -112 -121 -44 -133 -51 -255 -150 -70
-57 -140 -114 -154 -129 -14 -14 -28 -25 -30 -25 -2 0 -4 44 -5 98 0 88 -3
103 -33 166 -24 50 -55 90 -113 148 -99 97 -114 99 -110 8 3 -55 -1 -73 -25
-119 -28 -56 -78 -103 -122 -116 l-23 -7 22 30 c83 112 -29 381 -211 508 -20
13 -46 44 -58 69 -27 54 -40 63 -57 40 -22 -30 -27 -118 -12 -209 8 -47 14
-86 12 -86 -5 0 -41 67 -48 90 -48 161 -54 202 -55 373 0 95 4 210 8 257 18
168 46 360 53 360 5 0 8 -13 8 -28 0 -30 16 -52 38 -52 11 0 13 8 8 33 -4 17
-9 75 -13 127 -6 93 -5 97 32 185 20 50 43 101 51 115 17 31 134 289 134 296
0 3 8 24 19 47 10 23 35 85 56 137 67 174 59 166 79 75 25 -113 57 -206 70
-202 6 3 9 11 7 18 -32 108 -53 201 -67 293 -10 61 -21 115 -25 120 -5 5 -13
-4 -19 -20z"/>
<path d="M1220 5740 c17 -32 99 -87 164 -110 140 -52 357 -60 475 -19 30 10
56 17 58 16 1 -2 -9 -40 -23 -85 -26 -85 -89 -235 -189 -447 -30 -66 -60 -129
-65 -140 -19 -40 -51 -144 -60 -192 -4 -26 -11 -59 -14 -73 -9 -36 -9 -190 0
-236 16 -87 90 -206 153 -247 25 -15 29 -24 34 -90 10 -113 49 -205 122 -285
34 -39 126 -111 168 -132 15 -7 46 -30 69 -49 39 -33 40 -36 36 -83 -6 -54
-38 -97 -89 -118 -16 -7 -29 -16 -29 -21 0 -16 31 -9 77 18 51 30 73 70 73
134 0 69 -26 97 -177 192 -100 64 -161 161 -202 323 l-26 101 -60 50 c-111 92
-149 223 -121 409 23 152 77 306 206 589 142 312 188 443 162 459 -5 3 -36 -7
-68 -23 -65 -31 -213 -61 -303 -61 -118 0 -276 54 -338 116 -30 30 -48 32 -33
4z"/>
<path d="M6266 5696 c3 -9 11 -16 16 -16 13 0 5 23 -10 28 -7 2 -10 -2 -6 -12z"/>
<path d="M6290 5662 c0 -14 37 -62 43 -56 8 9 -13 52 -29 58 -8 3 -14 2 -14
-2z"/>
<path d="M6920 5605 c0 -28 64 -116 135 -185 101 -99 208 -227 237 -284 82
-162 90 -315 21 -434 -28 -50 -40 -49 -24 0 6 19 11 70 12 113 1 110 -24 175
-95 245 -58 58 -164 132 -181 127 -5 -2 -11 -16 -13 -32 -3 -21 0 -26 12 -22
14 6 86 -39 101 -63 9 -15 -12 -30 -42 -30 -13 0 -23 -3 -23 -8 0 -4 -12 -15
-27 -24 -16 -10 -23 -18 -16 -18 7 0 15 -17 19 -37 20 -116 54 -234 127 -430
71 -192 92 -330 66 -428 -28 -108 -150 -216 -347 -312 -127 -61 -191 -76 -382
-92 -134 -10 -200 -28 -238 -64 -30 -28 -68 -102 -77 -150 -4 -20 -11 -37 -15
-37 -10 0 -40 74 -40 99 0 25 -26 47 -33 27 -16 -41 53 -197 115 -258 24 -24
67 -55 97 -71 102 -52 275 -60 363 -16 54 27 108 77 108 101 0 26 -12 21 -35
-14 -44 -71 -181 -105 -304 -78 -88 19 -186 76 -230 132 -19 24 -19 26 -1 93
10 37 31 86 47 108 48 69 69 76 290 97 197 19 290 39 300 67 3 7 13 11 22 8
28 -9 216 103 278 164 141 141 161 329 64 606 -12 33 -17 61 -12 63 40 13 120
84 143 127 59 109 63 277 9 403 -48 114 -95 177 -247 327 -78 77 -145 150
-148 163 -6 19 -36 33 -36 17z m317 -660 c30 -58 42 -167 24 -230 -10 -39 -65
-125 -80 -125 -13 0 -78 185 -101 285 -12 55 -26 108 -31 117 -8 14 -2 19 33
28 24 6 50 14 58 19 21 12 65 -31 97 -94z"/>
<path d="M6356 5555 c9 -14 20 -25 25 -25 5 0 9 -5 9 -10 0 -15 101 -140 113
-140 11 0 -34 64 -69 97 -12 12 -32 40 -45 63 -12 22 -29 40 -36 40 -10 0 -10
-6 3 -25z"/>
<path d="M6510 5366 c0 -10 61 -68 66 -63 7 6 -45 67 -58 67 -4 0 -8 -2 -8 -4z"/>
<path d="M3135 5331 c-5 -8 38 -122 56 -146 4 -5 25 -44 47 -85 57 -108 82
-151 104 -183 11 -16 18 -30 16 -32 -2 -2 -35 0 -73 5 -71 9 -450 5 -466 -6
-5 -3 -9 -10 -9 -15 0 -6 5 -7 11 -4 11 7 426 8 508 1 37 -3 51 -10 80 -43
112 -123 116 -127 201 -188 43 -31 124 -57 156 -49 28 7 29 15 8 55 -21 41
-10 48 24 17 43 -40 130 -96 198 -128 61 -28 187 -60 238 -60 34 0 126 22 126
30 0 3 -37 4 -83 2 -100 -5 -181 13 -287 65 -82 40 -203 132 -252 194 -38 47
-64 53 -53 12 3 -16 22 -59 41 -97 19 -37 33 -70 31 -72 -5 -6 -105 40 -140
64 -73 50 -266 262 -285 312 -3 8 -11 22 -18 30 -7 8 -49 86 -93 172 -44 87
-82 154 -86 149z"/>
<path d="M6586 5292 c-7 -12 94 -103 106 -96 5 3 7 0 6 -7 -2 -7 11 -19 27
-27 17 -8 31 -19 33 -23 2 -4 10 -5 19 -2 10 4 14 2 10 -4 -7 -10 21 -28 30
-19 7 6 -70 71 -86 71 -3 0 -24 17 -45 37 -22 20 -44 34 -50 31 -5 -3 -6 -1
-2 6 4 6 0 14 -11 18 -10 4 -21 11 -24 16 -4 5 -9 5 -13 -1z"/>
<path d="M6832 5108 c5 -13 74 -50 118 -62 l25 -7 -25 20 c-13 11 -27 19 -30
18 -9 -3 -70 28 -70 35 0 5 -5 8 -11 8 -6 0 -9 -6 -7 -12z"/>
<path d="M1860 5028 c-125 -232 -179 -381 -187 -514 -7 -115 13 -186 61 -215
17 -10 34 -19 37 -19 7 0 24 83 40 200 6 47 27 157 46 245 38 175 73 353 73
372 0 35 -31 4 -70 -69z m5 -113 c-36 -160 -88 -458 -98 -565 -4 -40 -14 -43
-39 -9 -63 85 -26 318 85 534 65 126 74 133 52 40z"/>
<path d="M6300 4980 c0 -6 5 -11 10 -11 13 -2 29 -6 33 -8 6 -6 50 -11 45 -5
-3 3 -12 6 -20 8 -7 1 -17 4 -23 7 -24 14 -45 18 -45 9z"/>
<path d="M6935 4970 c-3 -5 -1 -10 4 -10 6 0 11 5 11 10 0 6 -2 10 -4 10 -3 0
-8 -4 -11 -10z"/>
<path d="M6409 4946 c8 -9 30 -13 64 -12 29 1 55 -2 58 -7 8 -12 29 0 28 16 0
8 -2 8 -6 -1 -3 -9 -9 -10 -17 -3 -6 5 -40 12 -75 15 -52 4 -61 3 -52 -8z"/>
<path d="M6570 4942 c0 -5 7 -9 15 -9 8 0 12 4 9 9 -3 4 -9 8 -15 8 -5 0 -9
-4 -9 -8z"/>
<path d="M6617 4938 c-7 -4 11 -8 41 -8 29 0 52 5 52 10 0 12 -73 10 -93 -2z"/>
<path d="M6750 4940 c0 -12 44 -12 80 0 20 6 14 8 -27 9 -29 1 -53 -3 -53 -9z"/>
<path d="M4334 4872 c3 -5 101 -12 218 -16 117 -4 251 -11 298 -15 84 -8 134
2 69 13 -120 21 -596 35 -585 18z"/>
<path d="M3027 4814 c-1 -1 -64 -4 -141 -7 -155 -6 -164 -10 -173 -74 -5 -37
-3 -41 25 -52 19 -8 64 -11 121 -9 l91 3 0 -27 c0 -36 -2 -28 19 -101 21 -73
47 -127 61 -127 6 0 10 -6 10 -13 0 -20 53 -73 58 -58 3 8 0 16 -5 20 -30 21
-81 155 -63 166 11 7 330 -1 337 -9 12 -12 8 -101 -5 -129 -21 -43 -8 -54 19
-16 26 36 25 33 19 294 -2 101 -12 121 -64 130 -29 4 -304 13 -309 9z"/>
<path d="M2686 4531 c-4 -6 2 -54 13 -106 12 -52 21 -106 21 -121 0 -16 5 -24
13 -21 20 7 15 76 -13 192 -14 55 -24 72 -34 56z"/>
<path d="M2845 4389 c-10 -15 1 -23 20 -15 9 3 13 10 10 16 -8 13 -22 13 -30
-1z"/>
<path d="M6975 4303 c-40 -146 -124 -268 -235 -338 -53 -34 -152 -64 -233 -72
-66 -6 -80 -19 -48 -44 32 -26 97 -32 187 -19 147 22 252 71 305 142 65 85
104 264 80 356 -17 61 -35 53 -56 -25z m25 -134 c-14 -78 -50 -157 -90 -197
-43 -44 -105 -70 -227 -98 -118 -26 -133 -28 -133 -16 0 5 27 13 59 19 96 18
168 59 253 144 55 56 85 96 110 147 18 38 34 69 36 67 2 -2 -2 -32 -8 -66z"/>
<path d="M5140 4340 c0 -5 7 -10 16 -10 8 0 12 5 9 10 -3 6 -10 10 -16 10 -5
0 -9 -4 -9 -10z"/>
<path d="M2936 4325 c-3 -9 0 -15 8 -15 8 0 16 7 20 15 3 9 0 15 -8 15 -8 0
-16 -7 -20 -15z"/>
<path d="M1970 4281 c-5 -11 -10 -48 -10 -83 0 -68 28 -139 91 -227 28 -37 78
-71 108 -71 24 0 18 89 -8 98 -10 3 -11 -3 -6 -28 6 -27 4 -31 -11 -28 -42 8
-148 183 -142 235 3 27 4 27 26 -17 30 -57 100 -150 112 -150 18 0 11 22 -24
74 -18 28 -52 88 -75 134 -23 45 -43 82 -46 82 -2 0 -9 -9 -15 -19z"/>
<path d="M5070 4281 c0 -5 7 -11 15 -15 9 -3 15 0 15 9 0 8 -7 15 -15 15 -8 0
-15 -4 -15 -9z"/>
<path d="M4985 4230 c3 -5 8 -10 11 -10 2 0 4 5 4 10 0 6 -5 10 -11 10 -5 0
-7 -4 -4 -10z"/>
<path d="M3823 3843 c-25 -9 -13 -19 25 -19 20 0 52 -4 70 -8 20 -6 32 -5 32
2 0 5 -20 15 -44 21 -47 12 -63 13 -83 4z"/>
<path d="M5460 3218 c-1 -18 -9 -56 -19 -85 -21 -62 -7 -59 20 4 21 49 25 98
9 108 -6 4 -10 -7 -10 -27z"/>
<path d="M3928 3234 c-3 -3 -4 -34 -2 -69 4 -84 55 -195 120 -265 26 -28 49
-48 52 -45 3 2 -13 24 -35 48 -22 24 -59 81 -82 128 -39 76 -42 90 -39 147 3
58 0 70 -14 56z"/>
<path d="M6043 3195 c-16 -44 23 -141 79 -196 70 -67 178 -101 208 -64 11 13
7 15 -30 15 -55 0 -101 23 -144 71 -30 33 -83 119 -73 119 2 0 27 -12 57 -26
61 -30 72 -32 155 -40 94 -9 271 36 335 85 35 28 21 34 -26 11 -106 -53 -305
-77 -390 -48 -21 8 -65 31 -97 51 -66 42 -66 42 -74 22z"/>
<path d="M5347 3003 c-51 -49 -57 -71 -9 -32 32 27 66 68 60 74 -2 2 -25 -17
-51 -42z"/>
<path d="M5260 2936 c-8 -7 -55 -35 -105 -62 -85 -45 -127 -74 -108 -74 5 0
18 6 29 14 11 8 55 32 99 55 82 42 115 63 115 75 0 10 -15 7 -30 -8z"/>
<path d="M5499 2928 c-1 -7 -3 -26 -5 -43 -1 -16 -5 -52 -8 -80 l-5 -50 13 47
c21 73 29 138 17 138 -6 0 -12 -6 -12 -12z"/>
<path d="M4286 2902 c-21 -20 0 -34 97 -66 54 -18 211 -22 251 -6 53 20 26 30
-76 30 -94 0 -133 7 -235 38 -17 6 -34 8 -37 4z"/>
<path d="M4185 2770 c10 -11 25 -20 34 -20 12 1 10 5 -8 20 -30 26 -49 26 -26
0z"/>
<path d="M4240 2742 c0 -10 85 -47 155 -68 43 -12 96 -17 185 -17 109 0 135 4
205 28 44 14 86 29 94 31 8 2 11 7 8 10 -3 3 -46 -6 -95 -20 -130 -37 -272
-44 -377 -18 -44 11 -101 29 -127 41 -27 11 -48 17 -48 13z"/>
<path d="M5497 2593 c-37 -175 -69 -313 -90 -383 -32 -110 -78 -274 -117 -425
-17 -66 -38 -141 -46 -167 -8 -26 -14 -62 -13 -80 l0 -33 14 30 c7 17 20 59
28 95 18 77 89 352 112 430 29 101 56 204 65 250 4 25 15 70 23 100 8 30 20
83 26 118 7 35 14 69 18 77 3 8 1 15 -5 15 -5 0 -12 -12 -15 -27z"/>
<path d="M3320 2129 c0 -11 4 -18 10 -14 5 3 7 12 3 20 -7 21 -13 19 -13 -6z"/>
<path d="M3324 2087 c-2 -7 0 -24 5 -38 9 -22 10 -21 10 14 1 37 -5 48 -15 24z"/>
<path d="M3342 1938 c1 -16 6 -28 10 -28 11 0 10 22 -2 40 -8 11 -9 9 -8 -12z"/>
<path d="M5840 1881 c-25 -15 -52 -36 -60 -47 -14 -18 -14 -18 6 -1 11 9 25
17 31 17 5 0 19 8 31 18 11 9 29 22 39 29 10 6 14 12 8 12 -5 0 -30 -12 -55
-28z"/>
<path d="M3340 1884 c0 -8 5 -12 10 -9 6 3 10 10 10 16 0 5 -4 9 -10 9 -5 0
-10 -7 -10 -16z"/>
<path d="M6200 1872 c0 -4 38 -26 85 -47 47 -22 85 -43 85 -47 0 -5 4 -8 10
-8 5 0 37 -20 72 -44 l63 -44 42 -187 c49 -214 115 -386 139 -362 2 2 -13 58
-35 123 -21 65 -44 139 -50 164 -7 25 -16 54 -20 65 -5 11 -21 70 -36 130 -27
106 -49 165 -61 165 -4 0 -3 -17 1 -37 l7 -38 -29 27 c-15 15 -48 38 -73 51
-25 13 -75 40 -113 60 -68 37 -87 44 -87 29z"/>
<path d="M6466 1862 c-9 -15 4 -42 20 -42 18 0 18 11 1 35 -9 11 -16 14 -21 7z"/>
<path d="M3350 1842 c0 -11 4 -23 9 -27 6 -3 8 4 6 16 -6 30 -15 37 -15 11z"/>
<path d="M4672 1824 c2 -5 12 -26 22 -48 9 -21 19 -36 22 -33 7 7 -22 73 -36
82 -7 4 -11 4 -8 -1z"/>
<path d="M5735 1800 c-10 -11 -15 -20 -11 -20 11 0 39 30 34 36 -3 2 -13 -5
-23 -16z"/>
<path d="M3361 1784 c0 -11 3 -14 6 -6 3 7 2 16 -1 19 -3 4 -6 -2 -5 -13z"/>
<path d="M5673 1747 c-47 -53 -183 -244 -183 -256 0 -6 -3 -11 -8 -11 -4 0
-12 -9 -17 -20 -6 -11 -53 -84 -105 -163 -96 -142 -120 -185 -120 -212 0 -29
17 -14 41 37 13 28 43 81 67 116 23 36 42 68 42 73 0 4 3 9 8 11 8 4 52 65 52
73 0 3 23 39 50 79 28 40 50 79 50 85 0 6 4 11 9 11 5 0 13 9 16 20 4 11 23
40 43 63 67 79 92 111 92 119 0 14 -7 9 -37 -25z"/>
<path d="M3368 1715 c2 -19 7 -35 11 -35 4 0 5 16 3 35 -2 19 -7 35 -11 35 -4
0 -5 -16 -3 -35z"/>
<path d="M4724 1717 c3 -10 6 -23 6 -28 0 -5 5 -9 10 -9 14 0 12 13 -6 36 -14
17 -15 17 -10 1z"/>
<path d="M4750 1664 c0 -5 18 -45 40 -89 21 -44 36 -66 33 -50 -8 40 -74 166
-73 139z"/>
<path d="M2920 1583 c0 -45 15 -203 24 -261 3 -15 7 -48 11 -75 3 -26 10 -60
16 -75 6 -15 10 -28 9 -30 -1 -2 2 -7 6 -10 4 -4 4 9 1 30 -10 67 -37 312 -43
391 -6 84 -24 106 -24 30z"/>
<path d="M3391 1615 c-1 -27 27 -196 34 -203 10 -10 4 44 -14 133 -11 50 -19
81 -20 70z"/>
<path d="M4846 1460 c3 -14 10 -29 15 -34 14 -16 10 6 -7 34 l-15 25 7 -25z"/>
<path d="M4870 1406 c0 -5 62 -140 115 -251 23 -49 57 -120 74 -157 29 -62 51
-92 51 -70 0 5 -33 74 -72 153 -40 80 -93 186 -116 237 -38 80 -52 104 -52 88z"/>
<path d="M3440 1322 c0 -17 4 -34 10 -37 6 -4 7 6 3 27 -8 44 -13 48 -13 10z"/>
<path d="M3476 1137 c3 -10 9 -15 12 -12 3 3 0 11 -7 18 -10 9 -11 8 -5 -6z"/>
<path d="M6700 1084 c0 -4 7 -27 15 -53 8 -25 24 -84 35 -131 12 -47 28 -106
36 -132 7 -27 20 -69 28 -95 7 -27 30 -100 52 -165 46 -140 44 -146 -50 -215
-87 -64 -199 -122 -337 -176 -169 -66 -160 -61 -116 -65 32 -3 37 -7 37 -28 0
-33 28 -31 32 2 3 23 13 30 80 54 182 66 355 167 391 228 25 45 28 108 8 182
-10 36 -33 119 -50 185 -48 181 -112 378 -129 398 -15 17 -32 23 -32 11z"/>
<path d="M3502 1010 c0 -8 4 -26 8 -40 6 -20 8 -21 8 -5 0 11 -3 29 -8 40 -5
12 -8 14 -8 5z"/>
<path d="M3520 909 c0 -16 4 -28 9 -25 8 5 3 56 -5 56 -2 0 -4 -14 -4 -31z"/>
<path d="M3540 798 c0 -9 5 -20 10 -23 13 -8 13 5 0 25 -8 13 -10 13 -10 -2z"/>
<path d="M3570 684 c0 -10 5 -26 10 -34 8 -11 9 -7 4 15 -8 37 -14 45 -14 19z"/>
<path d="M3590 596 c0 -8 4 -17 9 -20 5 -4 7 3 4 14 -6 23 -13 26 -13 6z"/>
<path d="M6430 481 c-145 -49 -378 -162 -505 -246 -133 -88 -184 -118 -240
-142 -48 -20 -206 -62 -310 -82 -43 -8 -36 -9 55 -7 61 1 128 9 160 18 85 25
245 111 371 198 40 28 208 120 219 120 5 0 7 -34 5 -82 -3 -46 -7 -122 -9
-170 l-5 -88 34 0 c18 0 40 6 47 14 8 8 26 11 45 9 28 -5 31 -3 26 16 -6 25
-30 27 -61 5 -13 -9 -26 -14 -28 -11 -3 3 -6 78 -6 168 l0 163 53 24 c75 34
197 78 241 86 21 4 55 2 75 -3 21 -5 61 -15 88 -22 28 -6 64 -19 80 -28 48
-27 65 -32 65 -18 0 8 -17 23 -37 34 -99 55 -268 75 -363 44z"/>
<path d="M5227 468 c-4 -12 -2 -135 7 -331 2 -44 9 -84 16 -90 9 -9 11 14 5
108 -3 66 -8 164 -10 219 -4 97 -8 120 -18 94z"/>
<path d="M5701 385 c-14 -8 -62 -30 -108 -51 -46 -21 -83 -41 -83 -46 0 -4 3
-8 6 -8 16 0 214 101 214 110 0 5 -1 10 -2 9 -2 -1 -14 -7 -27 -14z"/>
<path d="M3676 280 c7 -40 24 -76 23 -50 0 8 -7 31 -15 50 l-14 35 6 -35z"/>
<path d="M3710 160 c0 -5 5 -10 11 -10 5 0 7 5 4 10 -3 6 -8 10 -11 10 -2 0
-4 -4 -4 -10z"/>
<path d="M3720 135 c0 -15 18 -40 24 -34 3 3 -1 14 -9 25 -8 10 -14 15 -15 9z"/>
<path d="M3740 81 c0 -5 5 -13 10 -16 6 -3 10 -2 10 4 0 5 -4 13 -10 16 -5 3
-10 2 -10 -4z"/>
<path d="M3760 44 c0 -6 7 -19 16 -30 14 -18 14 -18 3 6 -14 31 -19 36 -19 24z"/>
</g>
</svg>
